<svg width="628" height="813" viewBox="0 0 628 813" fill="none" xmlns="http://www.w3.org/2000/svg">
<path d="M628 465.674C628 653.945 479.443 813 320.88 813C162.318 813 0 653.945 0 465.674C0 277.404 162.318 0 320.88 0C479.443 0 628 277.404 628 465.674Z" fill="#DE2EA2"/>
<rect x="132" y="254.357" width="367" height="361.752" fill="#C4C4C4"/>
<path d="M190.368 131.889L249.979 255.392H130.756L190.368 131.889Z" fill="#E9DD6F"/>
<path d="M284.8 172.239L344.411 254.847H225.189L284.8 172.239Z" fill="#E9DD6F"/>
<path d="M414.502 152.609L497.761 254.847H331.244L414.502 152.609Z" fill="#E9DD6F"/>
<path d="M190.368 733.867L249.979 610.363H130.756L190.368 733.867Z" fill="#E9DD6F"/>
<path d="M284.8 693.517L344.411 610.908H225.189L284.8 693.517Z" fill="#E9DD6F"/>
<path d="M414.502 713.147L497.761 610.908H331.244L414.502 713.147Z" fill="#E9DD6F"/>
<path d="M579.969 324.416L489.555 244.759L489.84 404.369L579.969 324.416Z" fill="#E9DD6F"/>
<path d="M605.868 437.092L489.208 373.181L489.436 501.386L605.868 437.092Z" fill="#E9DD6F"/>
<path d="M582.587 557.103L489.36 493.153L489.589 621.358L582.587 557.103Z" fill="#E9DD6F"/>
<path d="M44.0314 324.416L134.445 244.759L134.16 404.369L44.0314 324.416Z" fill="#E9DD6F"/>
<path d="M18.122 437.092L134.774 373.197L134.562 501.402L18.122 437.092Z" fill="#E9DD6F"/>
<path d="M41.4133 557.103L134.64 493.153L134.411 621.358L41.4133 557.103Z" fill="#E9DD6F"/>
<path d="M538.809 212.802L464.88 223.474L514.321 280.51L538.809 212.802Z" fill="#E9DD6F"/>
<path d="M111.368 581.078L156.209 638.419L79.2273 645.779L111.368 581.078Z" fill="#E9DD6F"/>
<path d="M82.9523 211.712L156.882 222.384L107.441 279.42L82.9523 211.712Z" fill="#E9DD6F"/>
<path d="M533.928 663.588L521.975 592.848L463.022 640.867L533.928 663.588Z" fill="#E9DD6F"/>
</svg>
